<svg width="64" height="76" viewBox="0 0 64 76" fill="none" xmlns="http://www.w3.org/2000/svg">
<path d="M15.0863 54.3153V53.8808C15.1351 49.27 15.6234 45.6007 16.551 42.8729C17.4786 40.145 18.7969 37.9362 20.5057 36.2464C22.2145 34.5566 24.265 32.9996 26.6574 31.5753C28.0976 30.7063 29.3915 29.6803 30.5388 28.4974C31.6861 27.2904 32.5894 25.9024 33.2485 24.3333C33.932 22.7641 34.2738 21.0261 34.2738 19.119C34.2738 16.7533 33.7123 14.7013 32.5894 12.9633C31.4664 11.2252 29.9651 9.88538 28.0854 8.94392C26.2058 8.00245 24.1186 7.53172 21.8239 7.53172C19.8221 7.53172 17.8936 7.9421 16.0384 8.76287C14.1831 9.58363 12.633 10.8751 11.388 12.6374C10.143 14.3996 9.42284 16.705 9.22755 19.5535H0C0.195292 15.4497 1.2694 11.9373 3.22232 9.01634C5.19965 6.09539 7.79948 3.86242 11.0218 2.31745C14.2685 0.772484 17.8692 0 21.8239 0C26.1203 0 29.8553 0.844904 33.0288 2.53471C36.2267 4.22452 38.6922 6.54198 40.4255 9.48707C42.1831 12.4322 43.0619 15.7876 43.0619 19.5535C43.0619 22.2089 42.6469 24.6109 41.8169 26.7593C41.0113 28.9078 39.8396 30.827 38.3017 32.5168C36.7881 34.2066 34.9573 35.7033 32.8091 37.0068C30.6609 38.3345 28.9398 39.7347 27.646 41.2072C26.3522 42.6556 25.4124 44.3816 24.8265 46.3853C24.2406 48.3889 23.9233 50.8874 23.8745 53.8808V54.3153H15.0863ZM19.7733 75.7517C17.9669 75.7517 16.4167 75.112 15.1229 73.8326C13.8291 72.5532 13.1822 71.0203 13.1822 69.2339C13.1822 67.4475 13.8291 65.9146 15.1229 64.6352C16.4167 63.3558 17.9669 62.7161 19.7733 62.7161C21.5798 62.7161 23.1299 63.3558 24.4237 64.6352C25.7175 65.9146 26.3644 67.4475 26.3644 69.2339C26.3644 70.4168 26.0593 71.5031 25.449 72.4928C24.8631 73.4826 24.0697 74.2792 23.0689 74.8827C22.0924 75.4621 20.9939 75.7517 19.7733 75.7517Z" fill="#FFCE4F"/>
<path d="M64 16.2846L32.6324 59.6366L25.6571 54.8414L55.822 10.6627L64 16.2846ZM16.7714 74.8403C15.2881 73.8206 14.3846 72.4204 14.0607 70.6396C13.7369 68.8588 14.0905 67.235 15.1217 65.7682C16.1528 64.3014 17.5687 63.4079 19.3696 63.0877C21.1704 62.7674 22.8125 63.1171 24.2957 64.1368C25.779 65.1564 26.6825 66.5567 27.0064 68.3375C27.3302 70.1183 26.9766 71.7421 25.9455 73.2089C25.2627 74.1801 24.3851 74.8999 23.3127 75.368C22.2604 75.85 21.1491 76.0563 19.979 75.9869C18.8428 75.9114 17.7736 75.5292 16.7714 74.8403Z" fill="#743AEF"/>
</svg>
